<svg width="192" height="192" viewBox="0 0 192 192" fill="none" xmlns="http://www.w3.org/2000/svg">
<rect width="192" height="192" fill="#F7E296"/>
<path fill-rule="evenodd" clip-rule="evenodd" d="M48 40.4365V151.563H92.4865C99.6578 151.74 106.787 150.412 113.42 147.666C120.054 144.919 126.046 140.813 131.016 135.609C136.111 130.392 140.108 124.196 142.769 117.391C145.431 110.586 146.702 103.31 146.507 96C146.702 88.6895 145.431 81.4144 142.769 74.6091C140.108 67.8038 136.111 61.6078 131.016 56.3911C126.046 51.1877 120.053 47.082 113.42 44.3352C106.787 41.5884 99.6577 40.2607 92.4865 40.4365H48ZM73.2632 127.579V64.4211H92.4898C96.4431 64.2626 100.386 65.3897 104.065 66.8522C107.745 68.3147 111.08 70.5339 113.859 73.3678C116.648 76.4027 118.808 79.9663 120.213 83.8504C121.618 87.7346 122.725 91.8615 122.526 95.99C122.725 100.119 121.618 104.246 120.213 108.13C118.808 112.014 116.648 115.578 113.859 118.612C111.081 121.447 107.745 123.667 104.066 125.129C100.386 126.592 96.4432 127.738 92.4898 127.579H73.4605H73.2632Z" fill="black"/>
</svg>
