<svg width="78" height="88" viewBox="0 0 78 88" fill="none" xmlns="http://www.w3.org/2000/svg">
<path fill-rule="evenodd" clip-rule="evenodd" d="M0 0.0122204V87.9877H35.2185C40.8957 88.1274 46.5397 87.0765 51.7911 84.9019C57.0426 82.7273 61.7865 79.4767 65.7211 75.3569C69.7542 71.2271 72.9187 66.3219 75.0257 60.9344C77.1328 55.5469 78.1391 49.7874 77.9846 44C78.1391 38.2125 77.1328 32.4531 75.0257 27.0655C72.9187 21.678 69.7542 16.7729 65.7211 12.643C61.7863 8.52359 57.0422 5.27323 51.7908 3.09869C46.5395 0.924145 40.8956 -0.126968 35.2185 0.0122204H0ZM20 69V19H35.2211C38.3507 18.8746 41.472 19.7668 44.385 20.9246C47.298 22.0824 49.9387 23.8393 52.1381 26.0828C54.3462 28.4854 56.0563 31.3066 57.1686 34.3816C58.2808 37.4566 59.1569 40.7237 59 43.9921C59.157 47.2605 58.281 50.5277 57.1688 53.6027C56.0565 56.6777 54.3463 59.4989 52.1381 61.9014C49.9391 64.1454 47.2985 65.9026 44.3853 67.0605C41.4722 68.2184 38.3508 69.1261 35.2211 69H20.1562H20Z" fill="black"/>
</svg>
